<svg xmlns="http://www.w3.org/2000/svg" viewBox="-20 -20 140 51.37696533439305" xmlns:xlink="http://www.w3.org/1999/xlink" version="1.1"  ><rect width="100%" height="100%" x="-20" y="-20" fill="#FFFFFF" ></rect><g transform="translate(14.88193474376666 8.721104805734518) scale(0.2012483462607528)" id="horizontalContainerlessSvgTemplate"><g fill="#000000"><g transform="translate(-73.94947933479261 -42.04442661569945) scale(0.1053727525067383)" id="logomark"><g fill="#000000"><path d="M138.771 55.507L83.242.009.013 83.256l55.497 55.53zM502.113 418.869l-83.261 83.248 93.135 9.873zM511.987 83.256L428.71.009 386.946 41.82l27.734 27.719-15.687 15.687-27.764-27.749-31.374 31.374 27.764 27.716-15.686 15.72-27.748-27.749-31.374 31.373 83.261 83.278zM163.677 320.561l-27.749-27.748-31.389 31.341 27.748 27.782-15.701 15.685-27.719-27.779-31.388 31.373 27.763 27.781-15.701 15.686-27.733-27.748L.013 428.713l83.229 83.277 136.136-136.119-55.529-55.498zM166.552 83.256l-83.31 83.279 307.861 307.863 83.277-83.308z"></path></g></g><g transform="translate(-1.1048593350383633 0) scale(0.8525149190110827)" fill="#000000"><g id="line1" fill="#000000"><path d="M24.048-48.240C10.296-48.240 2.664-41.616 2.664-32.328C2.664-23.904 7.920-19.656 21.240-17.352C27.504-16.200 29.520-15.264 29.520-13.536C29.520-11.592 27.648-10.296 22.968-10.296C16.704-10.296 12.096-12.096 8.208-16.848L1.296-6.624C6.624-1.944 12.312 0.720 23.904 0.720C35.496 0.720 44.640-4.536 44.640-14.256C44.640-23.040 39.168-27.360 25.992-29.520C19.728-30.600 17.856-31.680 17.856-33.480C17.856-35.640 20.232-37.152 24.408-37.152C30.096-37.152 34.272-35.280 38.088-30.888L45.288-40.176C39.168-46.152 33.048-48.240 24.048-48.240Z"></path><path d="M75.542-10.368C74.174-9.576 72.734-9.144 70.718-9.144C67.694-9.144 66.182-10.440 66.182-13.824L66.182-25.992L76.046-25.992L76.046-36.000L66.182-36.000L66.182-47.880L51.638-43.848L51.638-36.000L45.806-36.000L45.806-25.992L51.638-25.992L51.638-11.520C51.638-2.592 56.822 0.720 66.038 0.720C69.710 0.720 74.102-0.288 76.478-1.872Z"></path><path d="M102.413-36.000L102.413-17.064C102.413-12.312 100.541-10.152 97.517-10.152C95.069-10.152 93.773-11.448 93.773-15.408L93.773-36.000L79.229-36.000L79.229-11.808C79.229-2.880 83.765 0.720 91.181 0.720C97.085 0.720 101.333-1.872 103.493-7.128L103.853 0L116.957 0L116.957-36.000Z"></path><path d="M146.419-50.832L146.419-29.880C144.547-34.056 141.163-36.720 135.979-36.720C126.979-36.720 121.651-29.808 121.651-17.856C121.651-6.120 126.835 0.720 135.907 0.720C141.379 0.720 145.411-2.376 147.427-6.984L147.931 0L160.963 0L160.963-50.832ZM141.451-9.648C138.283-9.648 136.339-11.808 136.339-18.000C136.339-24.192 138.283-26.280 141.451-26.280C144.763-26.280 146.419-23.616 146.419-18.288L146.419-17.712C146.419-12.096 144.547-9.648 141.451-9.648Z"></path><path d="M203.458-18.864C203.458-29.736 197.050-36.720 184.810-36.720C172.498-36.720 165.442-29.880 165.442-18.000C165.442-6.120 172.426 0.720 185.602 0.720C194.170 0.720 200.866-2.592 202.738-9.288L191.002-12.672C190.354-10.440 188.554-9.216 185.602-9.216C182.146-9.216 180.058-10.440 179.410-14.688L203.098-14.688C203.314-15.624 203.458-17.424 203.458-18.864ZM184.882-26.856C187.906-26.856 189.346-24.840 189.850-21.024L179.410-21.024C179.986-25.200 181.714-26.856 184.882-26.856Z"></path><path d="M233.640-36.720C227.736-36.720 223.416-33.912 221.256-28.584L220.896-36.000L207.792-36.000L207.792 0L222.336 0L222.336-18.936C222.336-23.832 224.352-25.848 227.232-25.848C229.536-25.848 230.904-24.552 230.904-20.448L230.904 0L245.448 0L245.448-24.336C245.448-32.328 240.912-36.720 233.640-36.720Z"></path><path d="M278.006-10.368C276.638-9.576 275.198-9.144 273.182-9.144C270.158-9.144 268.646-10.440 268.646-13.824L268.646-25.992L278.510-25.992L278.510-36.000L268.646-36.000L268.646-47.880L254.102-43.848L254.102-36.000L248.270-36.000L248.270-25.992L254.102-25.992L254.102-11.520C254.102-2.592 259.286 0.720 268.502 0.720C272.174 0.720 276.566-0.288 278.942-1.872Z"></path></g></g><g transform="translate(237.64092071611253 0) scale(0.8525149190110827)" fill="#000000"><g id="line2" fill="#000000"><path d="M25.560-22.752L25.560-20.736L42.408-20.736L42.408-17.424C42.408-10.728 38.304-1.224 25.344-1.224C13.752-1.224 6.480-9.864 6.480-23.760C6.480-37.656 14.112-46.296 25.560-46.296C34.344-46.296 39.888-42.552 42.192-35.064L44.136-36.072C41.472-44.208 35.424-48.240 25.560-48.240C12.744-48.240 4.248-38.808 4.248-23.760C4.248-8.712 12.528 0.720 25.272 0.720C34.416 0.720 40.320-3.312 42.552-9.864L42.624 0L44.496 0L44.496-22.752Z"></path><path d="M83.102-1.152C80.870-1.152 79.430-2.592 79.430-5.760L79.430-24.912C79.430-32.688 74.678-36.720 66.470-36.720C59.342-36.720 54.662-33.768 52.502-27.936L54.158-26.712C56.318-32.400 60.350-34.848 66.470-34.848C73.454-34.848 77.270-31.032 77.270-24.768L77.270-20.808L65.246-18.648C55.886-16.920 51.782-13.680 51.782-8.064C51.782-2.448 56.246 0.720 63.230 0.720C68.846 0.720 75.110-1.584 77.270-6.192C77.270-0.504 80.150 0.720 82.814 0.720C84.110 0.720 85.046 0.504 85.766 0.072L85.910-1.728C85.190-1.296 84.182-1.152 83.102-1.152ZM63.590-1.152C57.614-1.152 54.014-3.744 54.014-8.064C54.014-12.528 57.398-15.336 66.182-16.992L77.270-19.008L77.270-11.160C77.270-4.248 69.278-1.152 63.590-1.152Z"></path><path d="M105.293-36.720C99.533-36.720 95.285-32.904 93.557-27.576L93.341-36.000L91.469-36.000L91.469 0L93.629 0L93.629-20.592C93.629-28.224 98.597-34.776 104.789-34.776C107.309-34.776 108.461-34.200 109.397-33.336L110.189-35.208C109.109-36.144 107.597-36.720 105.293-36.720Z"></path><path d="M144.547-1.152C142.315-1.152 140.875-2.592 140.875-5.760L140.875-24.912C140.875-32.688 136.123-36.720 127.915-36.720C120.787-36.720 116.107-33.768 113.947-27.936L115.603-26.712C117.763-32.400 121.795-34.848 127.915-34.848C134.899-34.848 138.715-31.032 138.715-24.768L138.715-20.808L126.691-18.648C117.331-16.920 113.227-13.680 113.227-8.064C113.227-2.448 117.691 0.720 124.675 0.720C130.291 0.720 136.555-1.584 138.715-6.192C138.715-0.504 141.595 0.720 144.259 0.720C145.555 0.720 146.491 0.504 147.211 0.072L147.355-1.728C146.635-1.296 145.627-1.152 144.547-1.152ZM125.035-1.152C119.059-1.152 115.459-3.744 115.459-8.064C115.459-12.528 118.843-15.336 127.627-16.992L138.715-19.008L138.715-11.160C138.715-4.248 130.723-1.152 125.035-1.152Z"></path><path d="M170.698-3.096L161.626-3.096C156.082-3.096 153.274-5.328 153.274-8.424C153.274-11.376 156.370-13.752 161.050-14.184C162.418-13.896 163.858-13.752 165.442-13.752C174.082-13.752 179.698-18.288 179.698-25.200C179.698-28.872 178.114-31.896 175.378-33.912C175.666-38.160 178.330-40.752 182.938-40.752L182.362-42.624C177.538-42.624 174.298-39.600 173.938-34.848C171.634-36.072 168.754-36.720 165.442-36.720C156.730-36.720 151.042-32.184 151.042-25.200C151.042-20.520 153.706-16.920 158.098-15.048C154.066-14.256 151.186-11.736 151.186-8.136C151.186-5.328 153.274-3.024 156.442-1.944C151.978-0.936 149.098 1.944 149.098 5.832C149.098 11.520 155.146 15.480 165.802 15.480C175.666 15.480 182.506 11.232 182.506 4.968C182.506 0.144 177.970-3.096 170.698-3.096ZM153.202-25.200C153.202-31.104 157.954-34.848 165.442-34.848C172.858-34.848 177.538-31.104 177.538-25.200C177.538-19.368 172.858-15.552 165.442-15.552C157.954-15.552 153.202-19.368 153.202-25.200ZM166.018 13.608C156.658 13.608 151.186 10.368 151.186 5.544C151.186 1.584 155.146-1.224 161.050-1.224L170.338-1.224C176.746-1.224 180.490 1.368 180.490 5.256C180.490 10.152 174.442 13.608 166.018 13.608Z"></path><path d="M217.368-18.216C217.368-29.520 211.680-36.720 201.960-36.720C191.736-36.720 185.616-29.736 185.616-18.000C185.616-6.264 191.880 0.720 202.320 0.720C209.160 0.720 214.416-2.448 217.008-7.704L215.208-8.640C213.048-3.960 208.224-1.152 202.320-1.152C193.464-1.152 188.136-7.056 187.776-16.920L217.296-16.920C217.296-17.208 217.368-17.712 217.368-18.216ZM201.960-34.848C210.384-34.848 215.064-28.800 215.352-18.864L187.776-18.864C188.064-28.872 193.248-34.848 201.960-34.848Z"></path></g></g></g></g></svg>